<?xml version="1.0" encoding="UTF-8" standalone="no"?>
<svg
   xmlns:dc="http://purl.org/dc/elements/1.1/"
   xmlns:cc="http://creativecommons.org/ns#"
   xmlns:rdf="http://www.w3.org/1999/02/22-rdf-syntax-ns#"
   xmlns:svg="http://www.w3.org/2000/svg"
   xmlns="http://www.w3.org/2000/svg"
   xmlns:sodipodi="http://sodipodi.sourceforge.net/DTD/sodipodi-0.dtd"
   xmlns:inkscape="http://www.inkscape.org/namespaces/inkscape"
   viewBox="0 0 32 32"
   id="svg2"
   version="1.1"
   inkscape:version="0.91 r13725"
   sodipodi:docname="listen.svg">
  <metadata
     id="metadata10">
    <rdf:RDF>
      <cc:Work
         rdf:about="">
        <dc:format>image/svg+xml</dc:format>
        <dc:type
           rdf:resource="http://purl.org/dc/dcmitype/StillImage" />
      </cc:Work>
    </rdf:RDF>
  </metadata>
  <defs
     id="defs8" />
  <sodipodi:namedview
     pagecolor="#ffffff"
     bordercolor="#666666"
     borderopacity="1"
     objecttolerance="10"
     gridtolerance="10"
     guidetolerance="10"
     inkscape:pageopacity="0"
     inkscape:pageshadow="2"
     inkscape:window-width="715"
     inkscape:window-height="480"
     id="namedview6"
     showgrid="false"
     inkscape:zoom="9.5356445"
     inkscape:cx="2.9437247"
     inkscape:cy="16"
     inkscape:window-x="0"
     inkscape:window-y="0"
     inkscape:window-maximized="0"
     inkscape:current-layer="svg2" />
  <path
     style="text-indent:0;text-align:start;line-height:normal;text-transform:none;block-progression:tb;-inkscape-font-specification:Sans;fill:#ffffff;fill-opacity:1"
     d="M 17 4 C 12.593562 4 9 7.593562 9 12 L 11 12 C 11 8.674438 13.674438 6 17 6 C 20.327114 6 23 8.6641828 23 12 C 23 14.134894 22.079973 16.328644 20.96875 18.1875 C 19.857527 20.046356 18.592525 21.520567 17.96875 22.375 C 17.234531 23.381027 16.813995 24.364579 16.28125 25 C 15.748505 25.635421 15.249111 26 14 26 C 12.331516 26 11 24.668484 11 23 L 11 22 L 9 22 L 9 23 C 9 25.749516 11.250484 28 14 28 C 15.750889 28 17.024745 27.220829 17.8125 26.28125 C 18.600255 25.341671 19.025969 24.340473 19.59375 23.5625 C 20.094975 22.875933 21.475973 21.245394 22.6875 19.21875 C 23.899027 17.192106 25 14.698106 25 12 C 25 7.5858172 21.404886 4 17 4 z M 17 8 C 14.287907 8 12 10.155213 12 13 C 12 13.63866 11.98963 14.164511 11.90625 14.5 C 11.82287 14.835489 11.728015 14.963355 11.4375 15.15625 L 11 15.46875 L 11 16 C 11 16.712123 11.410596 17.348461 11.84375 17.6875 C 12.276904 18.026539 12.724894 18.179671 13.09375 18.34375 C 13.462606 18.507829 13.747839 18.673524 13.875 18.78125 C 14.002161 18.888976 14 18.853187 14 19 C 14 19.284118 13.92774 19.418626 13.59375 19.625 C 13.259761 19.831374 12.651474 20 11.90625 20 L 11.90625 22 C 12.928026 22 13.884489 21.789376 14.65625 21.3125 C 15.428011 20.835624 16 19.982882 16 19 C 16 18.277813 15.622839 17.618805 15.1875 17.25 C 14.752161 16.881195 14.287394 16.700796 13.90625 16.53125 C 13.525106 16.361704 13.223096 16.194992 13.09375 16.09375 C 13.378382 15.724763 13.743213 15.373291 13.84375 14.96875 C 14.012623 14.289239 14 13.64334 14 13 C 14 11.178787 15.294093 10 17 10 C 18.12774 10 19.110098 10.622863 19.625 11.53125 L 21.34375 10.53125 C 20.484652 9.0156367 18.85826 8 17 8 z"
     color="#FFF"
     overflow="visible"
     font-family="Sans"
     id="path4" />
</svg>
