<?xml version="1.0" encoding="UTF-8" standalone="no"?>
<svg
   xmlns:dc="http://purl.org/dc/elements/1.1/"
   xmlns:cc="http://creativecommons.org/ns#"
   xmlns:rdf="http://www.w3.org/1999/02/22-rdf-syntax-ns#"
   xmlns:svg="http://www.w3.org/2000/svg"
   xmlns="http://www.w3.org/2000/svg"
   xmlns:sodipodi="http://sodipodi.sourceforge.net/DTD/sodipodi-0.dtd"
   xmlns:inkscape="http://www.inkscape.org/namespaces/inkscape"
   viewBox="0 0 32 32"
   id="svg2"
   version="1.1"
   inkscape:version="0.91 r13725"
   sodipodi:docname="sendall.svg">
  <metadata
     id="metadata10">
    <rdf:RDF>
      <cc:Work
         rdf:about="">
        <dc:format>image/svg+xml</dc:format>
        <dc:type
           rdf:resource="http://purl.org/dc/dcmitype/StillImage" />
      </cc:Work>
    </rdf:RDF>
  </metadata>
  <defs
     id="defs8" />
  <sodipodi:namedview
     pagecolor="#ffffff"
     bordercolor="#666666"
     borderopacity="1"
     objecttolerance="10"
     gridtolerance="10"
     guidetolerance="10"
     inkscape:pageopacity="0"
     inkscape:pageshadow="2"
     inkscape:window-width="715"
     inkscape:window-height="480"
     id="namedview6"
     showgrid="false"
     inkscape:zoom="9.5356445"
     inkscape:cx="2.9437247"
     inkscape:cy="16"
     inkscape:window-x="0"
     inkscape:window-y="0"
     inkscape:window-maximized="0"
     inkscape:current-layer="svg2" />
  <path
     style="text-indent:0;text-align:start;line-height:normal;text-transform:none;block-progression:tb;-inkscape-font-specification:Bitstream Vera Sans;fill:#ffffff;fill-opacity:1"
     d="M 3 5 L 3 6 L 3 26 L 3 27 L 4 27 L 28 27 L 29 27 L 29 26 L 29 6 L 29 5 L 28 5 L 4 5 L 3 5 z M 5 7 L 15 7 L 15 25 L 5 25 L 5 23 L 6 23 L 6 21 L 5 21 L 5 11 L 6 11 L 6 9 L 5 9 L 5 7 z M 17 7 L 27 7 L 27 9 L 26 9 L 26 11 L 27 11 L 27 21 L 26 21 L 26 23 L 27 23 L 27 25 L 17 25 L 17 7 z M 8 9 L 8 11 L 10 11 L 10 9 L 8 9 z M 12 9 L 12 11 L 14 11 L 14 9 L 12 9 z M 18 9 L 18 11 L 20 11 L 20 9 L 18 9 z M 22 9 L 22 11 L 24 11 L 24 9 L 22 9 z M 8 21 L 8 23 L 10 23 L 10 21 L 8 21 z M 12 21 L 12 23 L 14 23 L 14 21 L 12 21 z M 18 21 L 18 23 L 20 23 L 20 21 L 18 21 z M 22 21 L 22 23 L 24 23 L 24 21 L 22 21 z"
     id="path4" />
</svg>
