<?xml version="1.0" encoding="UTF-8" standalone="no"?>
<svg
   xmlns:dc="http://purl.org/dc/elements/1.1/"
   xmlns:cc="http://creativecommons.org/ns#"
   xmlns:rdf="http://www.w3.org/1999/02/22-rdf-syntax-ns#"
   xmlns:svg="http://www.w3.org/2000/svg"
   xmlns="http://www.w3.org/2000/svg"
   xmlns:sodipodi="http://sodipodi.sourceforge.net/DTD/sodipodi-0.dtd"
   xmlns:inkscape="http://www.inkscape.org/namespaces/inkscape"
   viewBox="0 0 32 32"
   id="svg2"
   version="1.1"
   inkscape:version="0.91 r13725"
   sodipodi:docname="trigger.svg">
  <metadata
     id="metadata10">
    <rdf:RDF>
      <cc:Work
         rdf:about="">
        <dc:format>image/svg+xml</dc:format>
        <dc:type
           rdf:resource="http://purl.org/dc/dcmitype/StillImage" />
      </cc:Work>
    </rdf:RDF>
  </metadata>
  <defs
     id="defs8" />
  <sodipodi:namedview
     pagecolor="#ffffff"
     bordercolor="#666666"
     borderopacity="1"
     objecttolerance="10"
     gridtolerance="10"
     guidetolerance="10"
     inkscape:pageopacity="0"
     inkscape:pageshadow="2"
     inkscape:window-width="715"
     inkscape:window-height="480"
     id="namedview6"
     showgrid="false"
     inkscape:zoom="9.5356445"
     inkscape:cx="2.9437247"
     inkscape:cy="16"
     inkscape:window-x="0"
     inkscape:window-y="0"
     inkscape:window-maximized="0"
     inkscape:current-layer="svg2" />
  <path
     style="text-indent:0;text-align:start;line-height:normal;text-transform:none;block-progression:tb;-inkscape-font-specification:Sans;fill:#ffffff;fill-opacity:1"
     d="M 16 10 C 13.276 10 10.805 11.102 9 12.875 L 9 16.125 C 10.365 13.662 12.99 12 16 12 C 19.01 12 21.635 13.662 23 16.125 L 23 12.875 C 21.195 11.102 18.724 10 16 10 z M 16 14 C 12.698136 14 10 16.698136 10 20 C 10 23.301864 12.698136 26 16 26 C 19.301864 26 22 23.301864 22 20 C 22 16.698136 19.301864 14 16 14 z M 16 16 C 18.220984 16 20 17.779016 20 20 C 20 22.220984 18.220984 24 16 24 C 13.779016 24 12 22.220984 12 20 C 12 17.779016 13.779016 16 16 16 z"
     color="#000"
     overflow="visible"
     font-family="Sans"
     id="path4" />
</svg>
