<?xml version="1.0" encoding="UTF-8" standalone="no"?>
<svg
   xmlns:dc="http://purl.org/dc/elements/1.1/"
   xmlns:cc="http://creativecommons.org/ns#"
   xmlns:rdf="http://www.w3.org/1999/02/22-rdf-syntax-ns#"
   xmlns:svg="http://www.w3.org/2000/svg"
   xmlns="http://www.w3.org/2000/svg"
   xmlns:sodipodi="http://sodipodi.sourceforge.net/DTD/sodipodi-0.dtd"
   xmlns:inkscape="http://www.inkscape.org/namespaces/inkscape"
   viewBox="0 0 32 32"
   id="svg2"
   version="1.1"
   inkscape:version="0.91 r13725"
   sodipodi:docname="key-add.svg">
  <metadata
     id="metadata10">
    <rdf:RDF>
      <cc:Work
         rdf:about="">
        <dc:format>image/svg+xml</dc:format>
        <dc:type
           rdf:resource="http://purl.org/dc/dcmitype/StillImage" />
        <dc:title />
      </cc:Work>
    </rdf:RDF>
  </metadata>
  <defs
     id="defs8" />
  <sodipodi:namedview
     pagecolor="#ffffff"
     bordercolor="#666666"
     borderopacity="1"
     objecttolerance="10"
     gridtolerance="10"
     guidetolerance="10"
     inkscape:pageopacity="0"
     inkscape:pageshadow="2"
     inkscape:window-width="1536"
     inkscape:window-height="801"
     id="namedview6"
     showgrid="false"
     inkscape:zoom="13.924126"
     inkscape:cx="0.61228734"
     inkscape:cy="20.374057"
     inkscape:window-x="-8"
     inkscape:window-y="-8"
     inkscape:window-maximized="1"
     inkscape:current-layer="svg2" />
  <path
     style="color:#000000;line-height:normal;font-family:'Bitstream Vera Sans';-inkscape-font-specification:'Bitstream Vera Sans';text-indent:0;text-align:start;text-transform:none;block-progression:tb;overflow:visible"
     d="m 10.452487,3.8907316 c -3.0483313,3.0483309 -3.0483309,8.0466944 0,11.0950264 0.319959,0.319959 0.65518,0.550813 0.982372,0.78975 l -0.01926,9.688886 0.01926,0.365982 0.250409,0.250408 3.698341,3.698343 L 16,30.395516 l 0.616391,-0.616389 3.081951,-3.081952 0.61639,-0.616391 -0.61639,-0.61639 -1.232781,-1.232781 1.232781,-1.23278 0.61639,-0.616391 -0.61639,-0.61639 -1.232781,-1.232781 1.232781,-1.232781 0.61639,-0.616391 -0.61639,-0.61639 -1.213519,-1.213519 c 1.083921,-0.372176 2.172149,-0.977893 3.06269,-1.868432 3.048331,-3.048332 3.048331,-8.0466955 0,-11.0950264 -3.04833,-3.04833052 -8.046696,-3.0483308 -11.095026,0 z m 1.232781,1.2327808 c 2.375903,-2.3759044 6.25356,-2.3759048 8.629464,0 2.375905,2.3759044 2.375905,6.2535596 0,8.6294646 -0.745538,0.745539 -1.733102,1.293821 -2.63892,1.560238 l -0.231146,0.07705 -0.154099,0.154097 -0.674176,0.674176 L 16,16.834928 l 0.616391,0.616391 1.23278,1.23278 -1.23278,1.232781 L 16,20.533271 l 0.616391,0.61639 1.23278,1.232781 -1.23278,1.232781 L 16,24.231613 l 0.616391,0.61639 1.23278,1.232781 L 16,27.929955 l -2.812281,-2.812281 -0.01926,-9.765935 0.01926,-0.44303 -0.385244,-0.269671 c -0.431473,-0.308195 -0.815861,-0.584715 -1.117207,-0.886061 -2.3759054,-2.375905 -2.3759051,-6.2535602 0,-8.6294646 z m 3.081951,0.6163904 c -0.680846,0.6808457 -0.680846,1.7847155 0,2.4655615 0.680846,0.6808454 1.784716,0.6808454 2.465562,0 0.680846,-0.6808457 0.680846,-1.7847158 0,-2.4655615 -0.680846,-0.680846 -1.784716,-0.6808457 -2.465562,0 z"
     overflow="visible"
     id="path4"
     inkscape:connector-curvature="0" />
</svg>
