<svg xmlns="http://www.w3.org/2000/svg" viewBox="0 0 32 32">
    <path style="text-indent:0;text-align:start;line-height:normal;text-transform:none;block-progression:tb;-inkscape-font-specification:Bitstream Vera Sans" d="M 3 5 L 3 6 L 3 26 L 3 27 L 4 27 L 28 27 L 29 27 L 29 26 L 29 6 L 29 5 L 28 5 L 4 5 L 3 5 z M 5 7 L 15 7 L 15 25 L 5 25 L 5 23 L 6 23 L 6 21 L 5 21 L 5 11 L 6 11 L 6 9 L 5 9 L 5 7 z M 17 7 L 27 7 L 27 9 L 26 9 L 26 11 L 27 11 L 27 21 L 26 21 L 26 23 L 27 23 L 27 25 L 17 25 L 17 7 z M 8 9 L 8 11 L 10 11 L 10 9 L 8 9 z M 12 9 L 12 11 L 14 11 L 14 9 L 12 9 z M 18 9 L 18 11 L 20 11 L 20 9 L 18 9 z M 22 9 L 22 11 L 24 11 L 24 9 L 22 9 z M 8 21 L 8 23 L 10 23 L 10 21 L 8 21 z M 12 21 L 12 23 L 14 23 L 14 21 L 12 21 z M 18 21 L 18 23 L 20 23 L 20 21 L 18 21 z M 22 21 L 22 23 L 24 23 L 24 21 L 22 21 z"></path>
</svg>